<mxfile host="app.diagrams.net" modified="2021-08-08T07:41:24.872Z" agent="5.0 (Macintosh; Intel Mac OS X 10_15_7) AppleWebKit/605.1.15 (KHTML, like Gecko) Version/14.1.1 Safari/605.1.15" etag="H2FgeJyzceAVk3Btcbtm" version="14.9.5" type="github">
  <diagram id="BuzPBU330dbNFYFT-O6v" name="第 1 页">
    <mxGraphModel dx="946" dy="501" grid="1" gridSize="10" guides="1" tooltips="1" connect="1" arrows="1" fold="1" page="1" pageScale="1" pageWidth="827" pageHeight="1169" math="0" shadow="0">
      <root>
        <mxCell id="0" />
        <mxCell id="1" parent="0" />
        <mxCell id="CehP1cqlx7HicUej4p74-1" value="" style="rounded=0;whiteSpace=wrap;html=1;fontSize=16;fillColor=#f9f7ed;strokeColor=#36393d;" vertex="1" parent="1">
          <mxGeometry x="480" y="30" width="565" height="340" as="geometry" />
        </mxCell>
        <mxCell id="CehP1cqlx7HicUej4p74-3" value="" style="rounded=0;whiteSpace=wrap;html=1;fontSize=16;fillColor=#f9f7ed;strokeColor=#36393d;" vertex="1" parent="1">
          <mxGeometry x="180" y="32.5" width="285" height="335" as="geometry" />
        </mxCell>
        <mxCell id="CehP1cqlx7HicUej4p74-4" value="&lt;span style=&quot;color: rgb(51 , 51 , 51) ; font-family: &amp;#34;helvetica neue&amp;#34; , &amp;#34;helvetica&amp;#34; , &amp;#34;arial&amp;#34; , sans-serif ; font-size: 16px ; text-align: left&quot;&gt;creator_trx_&lt;/span&gt;&lt;span style=&quot;color: rgb(51 , 51 , 51) ; font-family: &amp;#34;helvetica neue&amp;#34; , &amp;#34;helvetica&amp;#34; , &amp;#34;arial&amp;#34; , sans-serif ; font-size: 16px ; text-align: left&quot;&gt;id = &lt;/span&gt;&lt;span style=&quot;font-family: &amp;#34;helvetica neue&amp;#34; , &amp;#34;helvetica&amp;#34; , &amp;#34;arial&amp;#34; , sans-serif ; font-size: 16px ; text-align: left&quot;&gt;&lt;font color=&quot;#ff3333&quot;&gt;51&lt;/font&gt;&lt;/span&gt;&lt;span style=&quot;color: rgb(51 , 51 , 51) ; font-family: &amp;#34;helvetica neue&amp;#34; , &amp;#34;helvetica&amp;#34; , &amp;#34;arial&amp;#34; , sans-serif ; font-size: 16px ; text-align: left&quot;&gt;&amp;nbsp;&lt;/span&gt;" style="rounded=1;whiteSpace=wrap;html=1;fontSize=16;fillColor=#dae8fc;strokeColor=#6c8ebf;labelBackgroundColor=none;" vertex="1" parent="1">
          <mxGeometry x="250" y="110" width="160" height="60" as="geometry" />
        </mxCell>
        <mxCell id="CehP1cqlx7HicUej4p74-5" value="&lt;span style=&quot;color: rgb(51 , 51 , 51) ; font-family: &amp;#34;helvetica neue&amp;#34; , &amp;#34;helvetica&amp;#34; , &amp;#34;arial&amp;#34; , sans-serif ; font-size: 16px ; text-align: left&quot;&gt;m_&lt;/span&gt;&lt;span style=&quot;color: rgb(51 , 51 , 51) ; font-family: &amp;#34;helvetica neue&amp;#34; , &amp;#34;helvetica&amp;#34; , &amp;#34;arial&amp;#34; , sans-serif ; font-size: 16px ; text-align: left&quot;&gt;id&lt;/span&gt;&lt;span style=&quot;color: rgb(51 , 51 , 51) ; font-family: &amp;#34;helvetica neue&amp;#34; , &amp;#34;helvetica&amp;#34; , &amp;#34;arial&amp;#34; , sans-serif ; font-size: 16px ; text-align: left&quot;&gt;s =&lt;/span&gt;&lt;span style=&quot;font-family: &amp;#34;helvetica neue&amp;#34; , &amp;#34;helvetica&amp;#34; , &amp;#34;arial&amp;#34; , sans-serif ; font-size: 16px ; text-align: left&quot;&gt;&lt;font color=&quot;#ff00ff&quot;&gt;&lt;b&gt; [51]&lt;/b&gt;&lt;/font&gt;&lt;br style=&quot;font-size: 16px&quot;&gt;&lt;/span&gt;" style="rounded=1;whiteSpace=wrap;html=1;fontSize=16;fillColor=#ffe6cc;strokeColor=#d79b00;labelBackgroundColor=none;" vertex="1" parent="1">
          <mxGeometry x="250" y="170" width="160" height="60" as="geometry" />
        </mxCell>
        <mxCell id="CehP1cqlx7HicUej4p74-6" value="&lt;span style=&quot;color: rgb(51 , 51 , 51) ; font-family: &amp;quot;helvetica neue&amp;quot; , &amp;quot;helvetica&amp;quot; , &amp;quot;arial&amp;quot; , sans-serif ; font-size: 16px ; text-align: left&quot;&gt;min_trx_&lt;/span&gt;&lt;span style=&quot;color: rgb(51 , 51 , 51) ; font-family: &amp;quot;helvetica neue&amp;quot; , &amp;quot;helvetica&amp;quot; , &amp;quot;arial&amp;quot; , sans-serif ; font-size: 16px ; text-align: left&quot;&gt;id = 51&lt;/span&gt;" style="rounded=1;whiteSpace=wrap;html=1;fontSize=16;fillColor=#d5e8d4;strokeColor=#82b366;labelBackgroundColor=none;" vertex="1" parent="1">
          <mxGeometry x="250" y="230" width="160" height="60" as="geometry" />
        </mxCell>
        <mxCell id="CehP1cqlx7HicUej4p74-7" value="&lt;span style=&quot;color: rgb(51 , 51 , 51) ; font-family: &amp;quot;helvetica neue&amp;quot; , &amp;quot;helvetica&amp;quot; , &amp;quot;arial&amp;quot; , sans-serif ; font-size: 16px ; text-align: left&quot;&gt;max_trx_&lt;/span&gt;&lt;span style=&quot;color: rgb(51 , 51 , 51) ; font-family: &amp;quot;helvetica neue&amp;quot; , &amp;quot;helvetica&amp;quot; , &amp;quot;arial&amp;quot; , sans-serif ; font-size: 16px ; text-align: left&quot;&gt;id = 53&lt;/span&gt;" style="rounded=1;whiteSpace=wrap;html=1;fontSize=16;fillColor=#e1d5e7;strokeColor=#9673a6;labelBackgroundColor=none;" vertex="1" parent="1">
          <mxGeometry x="250" y="290" width="160" height="60" as="geometry" />
        </mxCell>
        <mxCell id="CehP1cqlx7HicUej4p74-12" value="启动事务 A 时，&lt;br style=&quot;font-size: 16px&quot;&gt;创建的 Read View，且事务 id 为 &lt;b&gt;&lt;font color=&quot;#ff3333&quot;&gt;51&lt;/font&gt;&lt;/b&gt;" style="text;html=1;align=center;verticalAlign=middle;resizable=0;points=[];autosize=1;strokeColor=none;fontSize=16;" vertex="1" parent="1">
          <mxGeometry x="190" y="55" width="270" height="40" as="geometry" />
        </mxCell>
        <mxCell id="CehP1cqlx7HicUej4p74-14" value="2" style="rounded=0;whiteSpace=wrap;html=1;fontSize=16;fillColor=#ffe6cc;strokeColor=#d79b00;" vertex="1" parent="1">
          <mxGeometry x="567.5" y="162.5" width="80" height="40" as="geometry" />
        </mxCell>
        <mxCell id="CehP1cqlx7HicUej4p74-15" value="小林" style="rounded=0;whiteSpace=wrap;html=1;fontSize=16;fillColor=#ffe6cc;strokeColor=#d79b00;" vertex="1" parent="1">
          <mxGeometry x="647.5" y="162.5" width="80" height="40" as="geometry" />
        </mxCell>
        <mxCell id="CehP1cqlx7HicUej4p74-16" value="2000000" style="rounded=0;whiteSpace=wrap;html=1;fontSize=16;fillColor=#ffe6cc;strokeColor=#d79b00;" vertex="1" parent="1">
          <mxGeometry x="727.5" y="162.5" width="80" height="40" as="geometry" />
        </mxCell>
        <mxCell id="CehP1cqlx7HicUej4p74-17" value="&lt;font color=&quot;#ff3333&quot;&gt;52&lt;/font&gt;" style="rounded=0;whiteSpace=wrap;html=1;fontSize=16;fillColor=#f5f5f5;strokeColor=#666666;fontColor=#333333;" vertex="1" parent="1">
          <mxGeometry x="807.5" y="162.5" width="80" height="40" as="geometry" />
        </mxCell>
        <mxCell id="CehP1cqlx7HicUej4p74-18" value="" style="rounded=0;whiteSpace=wrap;html=1;fontSize=16;fillColor=#f5f5f5;strokeColor=#666666;fontColor=#333333;" vertex="1" parent="1">
          <mxGeometry x="887.5" y="162.5" width="80" height="40" as="geometry" />
        </mxCell>
        <mxCell id="CehP1cqlx7HicUej4p74-19" value="id" style="text;html=1;align=center;verticalAlign=middle;resizable=0;points=[];autosize=1;strokeColor=none;fontSize=16;" vertex="1" parent="1">
          <mxGeometry x="592.5" y="142.5" width="30" height="20" as="geometry" />
        </mxCell>
        <mxCell id="CehP1cqlx7HicUej4p74-20" value="name" style="text;html=1;align=center;verticalAlign=middle;resizable=0;points=[];autosize=1;strokeColor=none;fontSize=16;" vertex="1" parent="1">
          <mxGeometry x="657.5" y="142.5" width="60" height="20" as="geometry" />
        </mxCell>
        <mxCell id="CehP1cqlx7HicUej4p74-21" value="balance" style="text;html=1;align=center;verticalAlign=middle;resizable=0;points=[];autosize=1;strokeColor=none;fontSize=16;" vertex="1" parent="1">
          <mxGeometry x="732.5" y="142.5" width="70" height="20" as="geometry" />
        </mxCell>
        <mxCell id="CehP1cqlx7HicUej4p74-22" value="trx_id" style="text;html=1;align=center;verticalAlign=middle;resizable=0;points=[];autosize=1;strokeColor=none;fontSize=16;" vertex="1" parent="1">
          <mxGeometry x="822.5" y="142.5" width="50" height="20" as="geometry" />
        </mxCell>
        <mxCell id="CehP1cqlx7HicUej4p74-23" value="roll_pointer" style="text;html=1;align=center;verticalAlign=middle;resizable=0;points=[];autosize=1;strokeColor=none;fontSize=16;" vertex="1" parent="1">
          <mxGeometry x="887.5" y="142.5" width="90" height="20" as="geometry" />
        </mxCell>
        <mxCell id="CehP1cqlx7HicUej4p74-24" style="edgeStyle=orthogonalEdgeStyle;rounded=0;orthogonalLoop=1;jettySize=auto;html=1;entryX=0;entryY=0.5;entryDx=0;entryDy=0;" edge="1" parent="1" source="CehP1cqlx7HicUej4p74-25" target="CehP1cqlx7HicUej4p74-27">
          <mxGeometry relative="1" as="geometry">
            <Array as="points">
              <mxPoint x="927.5" y="220" />
              <mxPoint x="547.5" y="220" />
              <mxPoint x="547.5" y="270" />
            </Array>
          </mxGeometry>
        </mxCell>
        <mxCell id="CehP1cqlx7HicUej4p74-25" value="" style="ellipse;whiteSpace=wrap;html=1;aspect=fixed;fontSize=16;" vertex="1" parent="1">
          <mxGeometry x="922.5" y="177.5" width="10" height="10" as="geometry" />
        </mxCell>
        <mxCell id="CehP1cqlx7HicUej4p74-26" value="记录的字段" style="text;html=1;align=center;verticalAlign=middle;resizable=0;points=[];autosize=1;strokeColor=none;fontSize=16;" vertex="1" parent="1">
          <mxGeometry x="720" y="60" width="100" height="20" as="geometry" />
        </mxCell>
        <mxCell id="CehP1cqlx7HicUej4p74-27" value="1" style="rounded=0;whiteSpace=wrap;html=1;fontSize=16;fillColor=#dae8fc;strokeColor=#6c8ebf;" vertex="1" parent="1">
          <mxGeometry x="567.5" y="250" width="80" height="40" as="geometry" />
        </mxCell>
        <mxCell id="CehP1cqlx7HicUej4p74-28" value="小林" style="rounded=0;whiteSpace=wrap;html=1;fontSize=16;fillColor=#dae8fc;strokeColor=#6c8ebf;" vertex="1" parent="1">
          <mxGeometry x="647.5" y="250" width="80" height="40" as="geometry" />
        </mxCell>
        <mxCell id="CehP1cqlx7HicUej4p74-29" value="1000000" style="rounded=0;whiteSpace=wrap;html=1;fontSize=16;fillColor=#dae8fc;strokeColor=#6c8ebf;" vertex="1" parent="1">
          <mxGeometry x="727.5" y="250" width="80" height="40" as="geometry" />
        </mxCell>
        <mxCell id="CehP1cqlx7HicUej4p74-30" value="&lt;font color=&quot;#ff3333&quot;&gt;50&lt;/font&gt;" style="rounded=0;whiteSpace=wrap;html=1;fontSize=16;fillColor=#f5f5f5;strokeColor=#666666;fontColor=#333333;" vertex="1" parent="1">
          <mxGeometry x="807.5" y="250" width="80" height="40" as="geometry" />
        </mxCell>
        <mxCell id="CehP1cqlx7HicUej4p74-31" value="" style="rounded=0;whiteSpace=wrap;html=1;fontSize=16;fillColor=#f5f5f5;strokeColor=#666666;fontColor=#333333;" vertex="1" parent="1">
          <mxGeometry x="887.5" y="250" width="80" height="40" as="geometry" />
        </mxCell>
        <mxCell id="CehP1cqlx7HicUej4p74-32" value="id" style="text;html=1;align=center;verticalAlign=middle;resizable=0;points=[];autosize=1;strokeColor=none;fontSize=16;" vertex="1" parent="1">
          <mxGeometry x="592.5" y="230" width="30" height="20" as="geometry" />
        </mxCell>
        <mxCell id="CehP1cqlx7HicUej4p74-33" value="name" style="text;html=1;align=center;verticalAlign=middle;resizable=0;points=[];autosize=1;strokeColor=none;fontSize=16;" vertex="1" parent="1">
          <mxGeometry x="657.5" y="230" width="60" height="20" as="geometry" />
        </mxCell>
        <mxCell id="CehP1cqlx7HicUej4p74-34" value="balance" style="text;html=1;align=center;verticalAlign=middle;resizable=0;points=[];autosize=1;strokeColor=none;fontSize=16;" vertex="1" parent="1">
          <mxGeometry x="732.5" y="230" width="70" height="20" as="geometry" />
        </mxCell>
        <mxCell id="CehP1cqlx7HicUej4p74-35" value="trx_id" style="text;html=1;align=center;verticalAlign=middle;resizable=0;points=[];autosize=1;strokeColor=none;fontSize=16;" vertex="1" parent="1">
          <mxGeometry x="822.5" y="230" width="50" height="20" as="geometry" />
        </mxCell>
        <mxCell id="CehP1cqlx7HicUej4p74-36" value="roll_pointer" style="text;html=1;align=center;verticalAlign=middle;resizable=0;points=[];autosize=1;strokeColor=none;fontSize=16;" vertex="1" parent="1">
          <mxGeometry x="887.5" y="230" width="90" height="20" as="geometry" />
        </mxCell>
        <mxCell id="CehP1cqlx7HicUej4p74-37" value="" style="ellipse;whiteSpace=wrap;html=1;aspect=fixed;fontSize=16;" vertex="1" parent="1">
          <mxGeometry x="922.5" y="265" width="10" height="10" as="geometry" />
        </mxCell>
      </root>
    </mxGraphModel>
  </diagram>
</mxfile>
